<svg id="svg" version="1.1" xmlns="http://www.w3.org/2000/svg" xmlns:xlink="http://www.w3.org/1999/xlink" width="400" height="621.5088282504013" viewBox="0, 0, 400,621.5088282504013"><g id="svgg"><path id="path0" d="M87.736 220.499 C 87.331 221.103,86.865 221.598,86.700 221.599 C 86.535 221.599,86.400 221.960,86.400 222.400 C 86.400 222.840,86.240 223.200,86.043 223.200 C 85.847 223.200,85.577 223.638,85.442 224.173 C 85.308 224.709,84.826 225.265,84.370 225.409 C 83.856 225.573,83.627 225.894,83.766 226.257 C 83.892 226.584,83.817 226.734,83.595 226.597 C 83.374 226.460,83.200 226.804,83.200 227.376 C 83.200 228.020,82.977 228.400,82.600 228.400 C 82.270 228.400,82.000 228.670,82.000 229.000 C 82.000 229.330,81.840 229.600,81.643 229.600 C 81.447 229.600,81.177 230.038,81.042 230.573 C 80.908 231.109,80.445 231.659,80.013 231.796 C 79.516 231.954,79.133 232.550,78.969 233.423 C 78.736 234.666,78.402 234.990,77.500 234.847 C 77.335 234.821,77.200 235.076,77.200 235.413 C 77.200 235.749,76.930 236.129,76.600 236.255 C 76.270 236.382,76.000 236.727,76.000 237.022 C 76.000 237.317,75.547 238.047,74.994 238.645 C 74.353 239.336,74.072 239.997,74.221 240.465 C 74.393 241.007,74.249 241.200,73.671 241.200 C 73.101 241.200,72.821 241.562,72.638 242.536 C 72.478 243.388,72.029 244.064,71.394 244.403 C 70.847 244.696,70.400 245.185,70.400 245.491 C 70.400 245.797,70.231 245.943,70.025 245.815 C 69.816 245.686,69.726 246.005,69.823 246.536 C 69.953 247.253,69.550 247.947,68.198 249.338 C 67.209 250.356,66.400 251.433,66.400 251.733 C 66.400 252.032,66.040 252.693,65.600 253.200 C 65.160 253.707,64.800 254.287,64.800 254.488 C 64.800 254.689,64.170 255.448,63.400 256.174 C 62.630 256.900,62.000 257.846,62.000 258.275 C 62.000 258.705,61.371 259.558,60.603 260.170 C 59.834 260.783,59.288 261.418,59.389 261.582 C 59.490 261.746,59.129 262.265,58.586 262.737 C 58.044 263.209,57.600 263.866,57.600 264.197 C 57.600 264.529,57.441 264.800,57.247 264.800 C 57.052 264.800,56.788 265.115,56.658 265.500 C 56.365 266.372,55.665 267.415,54.500 268.714 C 54.005 269.265,53.600 270.061,53.600 270.482 C 53.600 270.903,53.439 271.148,53.243 271.026 C 53.046 270.905,52.769 271.270,52.626 271.837 C 52.484 272.404,51.925 273.278,51.384 273.780 C 50.843 274.281,50.400 274.896,50.400 275.146 C 50.400 275.396,50.240 275.600,50.043 275.600 C 49.847 275.600,49.574 276.050,49.436 276.600 C 49.298 277.150,49.022 277.600,48.824 277.600 C 48.626 277.600,48.345 278.140,48.200 278.800 C 48.055 279.460,47.799 280.000,47.631 280.000 C 47.463 280.000,46.987 280.630,46.572 281.400 C 46.157 282.170,45.687 282.800,45.527 282.800 C 45.367 282.800,45.118 283.430,44.974 284.200 C 44.827 284.984,44.472 285.600,44.168 285.600 C 43.869 285.600,43.124 286.635,42.512 287.900 C 41.901 289.165,41.265 290.260,41.100 290.333 C 40.935 290.407,40.800 290.722,40.800 291.033 C 40.800 291.345,40.663 291.600,40.495 291.600 C 40.177 291.600,39.575 292.622,38.784 294.500 C 38.530 295.105,38.159 295.600,37.961 295.600 C 37.762 295.600,37.600 295.855,37.600 296.167 C 37.600 296.478,37.465 296.793,37.300 296.867 C 37.135 296.940,36.581 297.810,36.068 298.800 C 33.568 303.627,31.163 308.085,30.568 308.992 C 30.205 309.547,30.047 310.000,30.216 310.000 C 30.385 310.000,30.251 310.315,29.917 310.700 C 29.584 311.085,28.981 312.165,28.578 313.100 C 28.176 314.035,27.690 314.800,27.499 314.800 C 27.309 314.800,27.256 314.968,27.383 315.172 C 27.509 315.377,27.430 315.658,27.207 315.796 C 26.983 315.934,26.800 316.382,26.800 316.790 C 26.800 317.199,26.665 317.593,26.500 317.667 C 26.101 317.844,24.129 321.948,23.785 323.316 C 23.636 323.912,23.353 324.400,23.157 324.400 C 22.960 324.400,22.800 324.670,22.800 325.000 C 22.800 325.330,22.640 325.600,22.445 325.600 C 22.249 325.600,21.971 326.230,21.826 327.000 C 21.682 327.770,21.394 328.400,21.187 328.400 C 20.979 328.400,20.695 329.117,20.555 329.993 C 20.415 330.869,20.169 331.505,20.010 331.406 C 19.850 331.307,19.480 331.986,19.189 332.913 C 18.897 333.841,18.440 334.870,18.173 335.200 C 17.907 335.530,17.565 336.383,17.414 337.095 C 17.262 337.808,16.972 338.494,16.769 338.619 C 16.566 338.745,16.400 339.197,16.400 339.624 C 16.400 340.051,16.234 340.400,16.030 340.400 C 15.827 340.400,15.722 341.066,15.798 341.881 C 15.895 342.927,15.727 343.544,15.226 343.981 C 14.836 344.321,14.390 345.451,14.235 346.491 C 14.080 347.531,13.784 348.486,13.577 348.614 C 13.370 348.742,13.200 349.207,13.200 349.647 C 13.200 350.087,13.050 350.355,12.867 350.241 C 12.683 350.128,12.510 350.252,12.481 350.518 C 12.194 353.183,11.830 354.800,11.517 354.800 C 11.309 354.800,11.196 355.461,11.265 356.268 C 11.344 357.182,11.204 357.799,10.893 357.902 C 10.619 357.994,10.497 358.233,10.621 358.434 C 10.745 358.635,10.657 358.800,10.424 358.800 C 10.191 358.800,10.000 359.329,10.000 359.976 C 10.000 360.623,9.844 361.249,9.653 361.367 C 9.462 361.485,9.180 362.527,9.027 363.681 C 8.874 364.835,8.604 365.965,8.428 366.190 C 8.113 366.594,7.611 369.151,7.424 371.302 C 7.372 371.909,7.210 372.524,7.064 372.669 C 6.919 372.814,6.800 373.623,6.800 374.467 C 6.800 375.310,6.629 376.000,6.420 376.000 C 6.211 376.000,5.918 377.076,5.769 378.392 C 5.620 379.708,5.374 380.708,5.223 380.614 C 5.071 380.520,4.906 381.244,4.855 382.222 L 4.763 384.001 200.282 383.900 L 395.800 383.800 395.675 382.900 C 395.606 382.405,395.760 382.000,396.018 382.000 C 396.307 382.000,396.375 381.733,396.195 381.300 C 396.035 380.915,395.896 380.375,395.886 380.100 C 395.875 379.825,395.717 379.600,395.533 379.600 C 395.350 379.600,395.200 379.060,395.200 378.400 C 395.200 377.740,395.020 377.200,394.800 377.200 C 394.580 377.200,394.400 376.851,394.400 376.424 C 394.400 375.997,394.200 375.524,393.955 375.372 C 393.667 375.194,393.602 374.412,393.769 373.149 C 393.934 371.906,393.878 371.200,393.614 371.200 C 393.386 371.200,393.200 370.390,393.200 369.400 C 393.200 368.410,393.045 367.600,392.856 367.600 C 392.667 367.600,392.564 366.880,392.626 366.000 C 392.689 365.120,392.574 364.400,392.370 364.400 C 392.167 364.400,392.000 363.950,392.000 363.400 C 392.000 362.850,391.843 362.400,391.651 362.400 C 391.459 362.400,391.181 361.640,391.032 360.710 C 390.883 359.781,390.460 358.687,390.091 358.280 C 389.650 357.793,389.409 356.801,389.387 355.386 C 389.366 353.963,389.125 352.980,388.677 352.485 C 387.879 351.603,387.744 350.203,388.500 350.645 C 388.775 350.806,388.685 350.577,388.300 350.137 C 387.915 349.697,387.600 348.946,387.600 348.469 C 387.600 347.991,387.420 347.600,387.200 347.600 C 386.980 347.600,386.800 347.330,386.800 347.000 C 386.800 346.670,386.620 346.400,386.400 346.400 C 386.180 346.400,386.000 346.040,386.000 345.600 C 386.000 345.160,385.828 344.800,385.618 344.800 C 385.242 344.800,384.993 343.732,384.642 340.611 C 384.544 339.736,384.269 338.956,384.032 338.877 C 383.794 338.798,383.600 338.388,383.600 337.967 C 383.600 337.545,383.420 337.200,383.200 337.200 C 382.980 337.200,382.800 336.930,382.800 336.600 C 382.800 336.270,382.608 336.000,382.373 336.000 C 382.128 336.000,382.054 335.659,382.200 335.200 C 382.346 334.741,382.272 334.400,382.027 334.400 C 381.792 334.400,381.600 333.879,381.600 333.243 C 381.600 332.583,381.342 331.987,381.000 331.855 C 380.654 331.723,380.400 331.125,380.400 330.445 C 380.400 329.296,379.304 326.735,378.698 326.466 C 378.531 326.392,378.496 326.168,378.620 325.968 C 378.744 325.767,378.400 325.401,377.856 325.153 C 377.009 324.767,376.898 324.507,377.085 323.351 C 377.218 322.534,377.138 322.000,376.884 322.000 C 376.653 322.000,376.345 321.460,376.200 320.800 C 376.055 320.140,375.791 319.600,375.613 319.600 C 375.435 319.600,375.170 318.965,375.024 318.189 C 374.879 317.413,374.589 316.883,374.380 317.012 C 374.171 317.142,374.000 316.877,374.000 316.424 C 374.000 315.971,373.840 315.600,373.645 315.600 C 373.449 315.600,373.171 314.970,373.026 314.200 C 372.882 313.430,372.637 312.798,372.482 312.796 C 372.327 312.794,371.850 311.995,371.421 311.021 C 370.993 310.047,370.513 309.330,370.354 309.428 C 370.195 309.527,369.941 309.044,369.790 308.355 C 369.625 307.604,369.207 307.022,368.746 306.902 C 368.219 306.764,368.050 306.473,368.208 305.975 C 368.434 305.261,367.881 303.954,366.900 302.887 C 366.625 302.588,366.400 302.098,366.400 301.798 C 366.400 301.499,366.031 301.137,365.580 300.994 C 365.130 300.851,364.789 300.434,364.823 300.067 C 364.905 299.174,364.382 297.600,364.003 297.600 C 363.837 297.600,363.590 297.048,363.455 296.373 C 363.318 295.692,363.030 295.258,362.805 295.397 C 362.582 295.535,362.400 295.444,362.400 295.195 C 362.400 294.645,361.590 293.797,360.821 293.540 C 360.464 293.421,360.215 292.660,360.147 291.480 C 360.076 290.261,359.752 289.301,359.219 288.728 C 358.769 288.245,358.400 287.641,358.400 287.386 C 358.400 286.775,357.171 285.408,356.349 285.104 C 355.899 284.937,355.759 284.546,355.896 283.832 C 356.005 283.264,355.935 282.800,355.741 282.800 C 355.547 282.800,354.964 281.905,354.445 280.811 C 353.925 279.717,353.169 278.717,352.764 278.589 C 352.323 278.449,351.926 277.814,351.775 277.005 C 351.635 276.263,351.258 275.554,350.935 275.431 C 350.613 275.307,350.461 275.024,350.598 274.803 C 350.735 274.581,350.556 274.400,350.200 274.400 C 349.844 274.400,349.652 274.240,349.773 274.044 C 349.894 273.848,349.560 273.404,349.031 273.057 C 348.418 272.655,348.137 272.164,348.257 271.704 C 348.371 271.268,348.040 270.601,347.423 270.021 C 346.860 269.493,346.400 268.888,346.400 268.676 C 346.400 268.465,345.950 267.875,345.400 267.365 C 344.850 266.855,344.400 266.250,344.400 266.019 C 344.400 265.789,344.201 265.600,343.957 265.600 C 343.714 265.600,343.613 265.342,343.734 265.027 C 343.863 264.692,343.476 264.073,342.807 263.540 C 342.176 263.038,341.745 262.490,341.848 262.322 C 342.122 261.879,340.344 259.600,339.725 259.600 C 339.436 259.600,339.200 259.255,339.200 258.833 C 339.200 257.701,338.767 256.773,338.358 257.026 C 338.161 257.148,338.000 256.877,338.000 256.424 C 338.000 255.971,337.841 255.600,337.646 255.600 C 337.202 255.600,335.867 253.595,335.867 252.930 C 335.867 252.657,335.627 252.342,335.333 252.230 C 335.040 252.117,334.800 251.827,334.800 251.584 C 334.800 251.341,334.575 250.892,334.300 250.585 C 333.169 249.324,332.885 248.898,332.620 248.063 C 332.467 247.582,332.175 247.292,331.971 247.418 C 331.767 247.544,331.600 247.296,331.600 246.866 C 331.600 246.437,331.319 245.978,330.975 245.846 C 330.631 245.714,330.461 245.424,330.598 245.203 C 330.735 244.981,330.581 244.800,330.255 244.800 C 329.923 244.800,329.548 244.273,329.399 243.597 C 329.254 242.935,329.013 242.468,328.864 242.561 C 328.715 242.653,328.252 242.028,327.836 241.172 C 327.419 240.316,326.733 239.506,326.310 239.372 C 325.868 239.231,325.632 238.893,325.754 238.575 C 325.871 238.271,325.640 237.792,325.241 237.511 C 324.841 237.230,324.390 236.604,324.237 236.120 C 324.084 235.637,323.598 235.126,323.158 234.987 C 322.717 234.847,322.428 234.522,322.517 234.266 C 322.729 233.654,321.229 231.452,319.874 230.386 C 319.283 229.922,318.800 229.285,318.800 228.971 C 318.800 228.657,318.620 228.400,318.400 228.400 C 318.180 228.400,318.000 227.950,318.000 227.400 C 318.000 226.778,317.773 226.400,317.400 226.400 C 317.061 226.400,316.800 226.042,316.800 225.576 C 316.800 225.123,316.633 224.856,316.429 224.982 C 316.225 225.108,315.933 224.818,315.780 224.337 C 315.627 223.855,315.341 223.268,315.144 223.031 C 314.947 222.794,314.294 221.918,313.693 221.084 L 312.600 219.567 200.536 219.484 L 88.472 219.400 87.736 220.499 " stroke="none" fill="#dbb30c" fill-rule="evenodd"></path><path id="path1" d="M198.530 7.541 C 198.275 7.949,197.941 9.119,197.788 10.141 C 197.635 11.164,197.350 12.000,197.155 12.000 C 196.960 12.000,196.800 12.450,196.800 13.000 C 196.800 13.550,196.622 14.000,196.405 14.000 C 196.187 14.000,195.894 14.720,195.754 15.600 C 195.613 16.480,195.361 17.200,195.193 17.200 C 195.026 17.200,194.767 17.852,194.617 18.649 C 194.468 19.446,194.193 20.391,194.006 20.749 C 193.092 22.504,192.400 24.405,192.400 25.160 C 192.400 25.622,192.243 26.000,192.051 26.000 C 191.859 26.000,191.587 26.720,191.446 27.600 C 191.306 28.480,191.013 29.200,190.795 29.200 C 190.578 29.200,190.400 29.650,190.400 30.200 C 190.400 30.750,190.243 31.200,190.051 31.200 C 189.859 31.200,189.587 31.920,189.446 32.800 C 189.306 33.680,189.036 34.400,188.846 34.400 C 188.657 34.400,188.387 35.120,188.246 36.000 C 188.106 36.880,187.813 37.600,187.595 37.600 C 187.378 37.600,187.200 38.050,187.200 38.600 C 187.200 39.150,187.036 39.600,186.835 39.600 C 186.634 39.600,186.349 40.320,186.200 41.200 C 186.051 42.080,185.766 42.800,185.565 42.800 C 185.364 42.800,185.194 43.205,185.187 43.700 C 185.180 44.195,184.910 44.949,184.587 45.376 C 184.264 45.804,184.000 46.569,184.000 47.076 C 184.000 47.584,183.834 48.000,183.632 48.000 C 183.429 48.000,183.146 48.536,183.002 49.191 C 182.858 49.846,182.305 51.241,181.772 52.291 C 181.239 53.341,180.803 54.515,180.802 54.900 C 180.801 55.285,180.634 55.600,180.432 55.600 C 180.229 55.600,179.945 56.138,179.801 56.795 C 179.657 57.453,179.372 58.094,179.169 58.219 C 178.966 58.345,178.800 58.797,178.800 59.224 C 178.800 59.651,178.628 60.000,178.418 60.000 C 178.208 60.000,177.918 60.630,177.774 61.400 C 177.629 62.170,177.351 62.800,177.155 62.800 C 176.960 62.800,176.800 63.120,176.800 63.511 C 176.800 63.902,176.260 65.263,175.600 66.535 C 174.940 67.807,174.400 69.197,174.400 69.624 C 174.400 70.051,174.234 70.400,174.032 70.400 C 173.829 70.400,173.545 70.940,173.400 71.600 C 173.255 72.260,172.971 72.800,172.768 72.800 C 172.566 72.800,172.400 73.072,172.400 73.405 C 172.400 73.738,172.229 74.323,172.019 74.705 C 171.480 75.690,170.510 78.039,170.205 79.100 C 170.063 79.595,169.778 80.000,169.573 80.000 C 169.368 80.000,169.200 80.450,169.200 81.000 C 169.200 81.550,169.034 82.000,168.832 82.000 C 168.629 82.000,168.345 82.540,168.200 83.200 C 168.055 83.860,167.785 84.400,167.600 84.400 C 167.415 84.400,167.145 84.940,167.000 85.600 C 166.855 86.260,166.571 86.800,166.368 86.800 C 166.166 86.800,166.000 87.160,166.000 87.600 C 166.000 88.040,165.834 88.400,165.632 88.400 C 165.429 88.400,165.145 88.940,165.000 89.600 C 164.855 90.260,164.585 90.800,164.400 90.800 C 164.215 90.800,163.937 91.385,163.782 92.100 C 163.626 92.815,163.375 93.490,163.222 93.600 C 162.895 93.836,158.400 102.956,158.400 103.384 C 158.400 103.545,158.052 104.165,157.627 104.763 C 157.201 105.360,156.732 106.333,156.583 106.924 C 156.435 107.516,156.153 108.000,155.957 108.000 C 155.760 108.000,155.599 108.225,155.598 108.500 C 155.596 108.775,155.302 109.540,154.944 110.200 C 153.267 113.290,152.010 115.831,152.005 116.138 C 152.002 116.324,151.652 116.965,151.227 117.563 C 150.801 118.160,150.332 119.133,150.183 119.724 C 150.035 120.316,149.753 120.800,149.557 120.800 C 149.360 120.800,149.200 121.132,149.200 121.539 C 149.200 121.945,148.858 122.672,148.440 123.154 C 148.022 123.636,147.167 125.058,146.540 126.315 C 145.913 127.572,145.265 128.660,145.100 128.733 C 144.935 128.807,144.800 129.122,144.800 129.433 C 144.800 129.745,144.640 130.000,144.443 130.000 C 144.247 130.000,143.963 130.493,143.812 131.096 C 143.660 131.699,143.359 132.302,143.142 132.436 C 142.925 132.570,142.701 132.991,142.645 133.372 C 142.589 133.753,142.366 134.185,142.150 134.332 C 141.933 134.479,141.366 135.441,140.890 136.469 C 140.415 137.496,139.840 138.452,139.613 138.592 C 139.386 138.732,139.200 139.197,139.200 139.624 C 139.200 140.051,139.020 140.400,138.800 140.400 C 138.580 140.400,138.400 140.670,138.400 141.000 C 138.400 141.330,138.232 141.600,138.027 141.600 C 137.822 141.600,137.528 142.005,137.373 142.500 C 137.219 142.995,136.981 143.490,136.846 143.600 C 136.711 143.710,136.240 144.520,135.801 145.400 C 135.361 146.280,134.776 147.238,134.501 147.529 C 134.225 147.819,134.000 148.314,134.000 148.629 C 134.000 148.943,133.848 149.200,133.663 149.200 C 133.478 149.200,132.983 149.872,132.563 150.694 C 132.143 151.516,131.575 152.428,131.300 152.722 C 131.025 153.017,130.800 153.514,130.800 153.829 C 130.800 154.143,130.620 154.400,130.400 154.400 C 130.180 154.400,130.000 154.670,130.000 155.000 C 130.000 155.330,129.823 155.600,129.608 155.600 C 129.392 155.600,129.102 156.050,128.964 156.600 C 128.826 157.150,128.572 157.600,128.400 157.600 C 128.228 157.600,127.974 158.050,127.836 158.600 C 127.698 159.150,127.408 159.600,127.192 159.600 C 126.977 159.600,126.800 159.870,126.800 160.200 C 126.800 160.530,126.620 160.800,126.400 160.800 C 126.180 160.800,126.000 161.057,126.000 161.371 C 126.000 161.686,125.754 162.189,125.453 162.490 C 125.152 162.791,124.790 163.402,124.648 163.848 C 124.507 164.294,124.078 165.011,123.695 165.441 C 123.313 165.872,122.550 167.085,122.000 168.138 C 121.450 169.191,120.707 170.370,120.349 170.757 C 119.991 171.145,119.562 171.898,119.395 172.431 C 119.228 172.964,118.977 173.490,118.837 173.600 C 118.597 173.788,117.962 174.680,116.304 177.160 C 115.922 177.732,115.389 178.650,115.120 179.200 C 114.851 179.750,114.216 180.740,113.710 181.400 C 113.203 182.060,112.656 182.780,112.494 183.000 C 112.332 183.220,111.804 184.211,111.321 185.202 C 110.837 186.194,110.117 187.373,109.721 187.824 C 108.750 188.928,108.026 190.053,107.742 190.900 C 107.612 191.285,107.360 191.600,107.180 191.600 C 107.001 191.600,106.728 192.005,106.573 192.500 C 106.419 192.995,106.172 193.490,106.025 193.600 C 105.661 193.873,103.200 197.586,103.200 197.862 C 103.200 197.985,102.747 198.650,102.194 199.342 C 101.641 200.034,101.033 200.794,100.843 201.031 C 100.653 201.268,100.374 201.853,100.222 202.331 C 100.070 202.809,99.778 203.200,99.573 203.200 C 99.368 203.200,99.200 203.455,99.200 203.767 C 99.200 204.078,99.064 204.393,98.897 204.467 C 98.730 204.540,97.695 205.950,96.597 207.600 C 95.499 209.250,94.465 210.660,94.300 210.733 C 94.135 210.807,94.000 211.083,94.000 211.347 C 94.000 211.827,92.812 213.501,91.500 214.870 C 91.115 215.271,90.800 215.752,90.800 215.939 C 90.800 216.125,90.444 216.688,90.008 217.190 C 89.573 217.692,89.313 218.260,89.432 218.452 C 89.553 218.648,138.047 218.800,200.651 218.800 L 311.654 218.800 311.379 217.934 C 311.228 217.458,310.676 216.639,310.152 216.116 C 309.628 215.592,309.200 214.967,309.200 214.728 C 309.200 214.488,308.750 213.875,308.200 213.365 C 307.650 212.855,307.200 212.327,307.200 212.191 C 307.200 212.054,306.975 211.692,306.700 211.385 C 305.773 210.352,305.403 209.806,304.609 208.300 C 304.174 207.475,303.679 206.800,303.509 206.800 C 303.339 206.800,303.200 206.524,303.200 206.187 C 303.200 205.851,302.946 205.478,302.636 205.359 C 302.326 205.239,301.963 204.705,301.828 204.171 C 301.694 203.637,301.408 203.200,301.192 203.200 C 300.977 203.200,300.800 202.930,300.800 202.600 C 300.800 202.270,300.623 202.000,300.408 202.000 C 300.192 202.000,299.902 201.550,299.764 201.000 C 299.626 200.450,299.394 200.000,299.248 200.000 C 299.101 200.000,298.643 199.370,298.228 198.600 C 297.813 197.830,297.322 197.200,297.137 197.200 C 296.952 197.200,296.800 196.924,296.800 196.587 C 296.800 196.251,296.530 195.871,296.200 195.745 C 295.870 195.618,295.600 195.168,295.600 194.745 C 295.600 194.321,295.330 193.871,295.000 193.745 C 294.670 193.618,294.400 193.264,294.400 192.957 C 294.400 192.651,294.240 192.400,294.043 192.400 C 293.847 192.400,293.574 191.950,293.436 191.400 C 293.298 190.850,293.008 190.400,292.792 190.400 C 292.577 190.400,292.397 190.175,292.394 189.900 C 292.390 189.625,291.850 188.791,291.194 188.046 C 290.537 187.301,290.000 186.550,290.000 186.377 C 290.000 186.043,286.050 179.538,285.641 179.200 C 285.312 178.927,284.475 177.571,284.037 176.600 C 283.839 176.160,283.300 175.403,282.838 174.917 C 282.377 174.431,282.000 173.839,282.000 173.601 C 282.000 173.114,280.364 170.673,279.900 170.467 C 279.735 170.393,279.600 170.093,279.600 169.800 C 279.600 169.507,279.465 169.207,279.300 169.133 C 279.135 169.060,278.550 168.105,278.000 167.012 C 277.450 165.918,276.678 164.662,276.285 164.220 C 275.891 163.778,275.466 163.007,275.341 162.508 C 275.216 162.009,274.953 161.600,274.757 161.600 C 274.560 161.600,274.400 161.335,274.400 161.012 C 274.400 160.492,272.198 156.923,271.554 156.400 C 271.419 156.290,271.181 155.795,271.027 155.300 C 270.872 154.805,270.578 154.400,270.373 154.400 C 270.168 154.400,270.000 154.130,270.000 153.800 C 270.000 153.470,269.840 153.200,269.645 153.200 C 269.449 153.200,269.171 152.570,269.026 151.800 C 268.882 151.030,268.637 150.398,268.482 150.395 C 268.327 150.393,267.856 149.673,267.436 148.795 C 267.015 147.918,266.520 147.200,266.336 147.200 C 266.151 147.200,266.000 146.943,266.000 146.629 C 266.000 146.314,265.775 145.819,265.500 145.527 C 264.869 144.858,263.286 142.145,262.683 140.700 C 262.431 140.095,262.084 139.600,261.912 139.600 C 261.741 139.600,261.600 139.330,261.600 139.000 C 261.600 138.670,261.465 138.396,261.300 138.392 C 261.135 138.387,260.550 137.401,260.000 136.200 C 259.450 134.999,258.865 134.013,258.700 134.008 C 258.535 134.004,258.400 133.640,258.400 133.200 C 258.400 132.760,258.265 132.396,258.100 132.392 C 257.935 132.387,257.350 131.401,256.800 130.200 C 256.250 128.999,255.665 128.013,255.500 128.008 C 255.335 128.004,255.200 127.730,255.200 127.400 C 255.200 127.070,255.034 126.800,254.832 126.800 C 254.629 126.800,254.345 126.260,254.200 125.600 C 254.055 124.940,253.816 124.399,253.668 124.399 C 253.521 124.398,253.067 123.588,252.660 122.599 C 252.254 121.609,251.773 120.800,251.592 120.800 C 251.411 120.800,251.145 120.260,251.000 119.600 C 250.855 118.940,250.585 118.400,250.400 118.400 C 250.215 118.400,249.945 117.860,249.800 117.200 C 249.655 116.540,249.371 116.000,249.168 116.000 C 248.966 116.000,248.800 115.640,248.800 115.200 C 248.800 114.760,248.623 114.400,248.408 114.400 C 248.192 114.400,247.894 113.905,247.746 113.300 C 247.598 112.695,247.369 112.110,247.238 112.000 C 247.106 111.890,245.928 109.640,244.619 107.000 C 243.310 104.360,242.120 102.110,241.974 102.000 C 241.827 101.890,241.578 101.385,241.420 100.879 C 241.262 100.372,240.533 98.897,239.800 97.600 C 239.067 96.303,238.339 94.828,238.181 94.321 C 238.024 93.815,237.571 92.939,237.174 92.376 C 236.778 91.812,236.332 90.868,236.184 90.278 C 236.036 89.688,235.754 89.305,235.557 89.426 C 235.361 89.548,235.200 89.259,235.200 88.785 C 235.200 87.916,234.045 85.510,233.513 85.271 C 233.355 85.200,233.110 84.525,232.968 83.771 C 232.827 83.017,232.565 82.400,232.387 82.400 C 232.209 82.400,231.945 81.860,231.800 81.200 C 231.655 80.540,231.371 80.000,231.168 80.000 C 230.966 80.000,230.800 79.730,230.800 79.400 C 230.800 79.070,230.620 78.800,230.400 78.800 C 230.180 78.800,230.000 78.520,230.000 78.178 C 230.000 77.836,229.666 76.801,229.257 75.878 C 228.848 74.955,228.264 73.615,227.959 72.900 C 227.654 72.185,227.283 71.600,227.134 71.600 C 226.985 71.600,226.745 71.058,226.599 70.396 C 226.351 69.266,225.632 67.498,224.774 65.905 C 224.568 65.523,224.400 64.928,224.400 64.582 C 224.400 64.236,224.236 64.054,224.035 64.178 C 223.835 64.302,223.549 63.683,223.400 62.802 C 223.251 61.921,222.980 61.200,222.797 61.200 C 222.613 61.200,222.338 60.627,222.184 59.927 C 222.030 59.227,221.587 58.090,221.200 57.400 C 220.813 56.710,220.370 55.573,220.216 54.873 C 220.062 54.173,219.771 53.600,219.568 53.600 C 219.366 53.600,219.199 53.285,219.198 52.900 C 219.197 52.515,218.747 51.314,218.198 50.232 C 217.649 49.150,217.199 48.070,217.198 47.832 C 217.196 47.594,216.943 46.917,216.635 46.327 C 216.327 45.737,215.955 44.704,215.807 44.032 C 215.659 43.359,215.372 42.706,215.169 42.581 C 214.966 42.455,214.800 42.003,214.800 41.576 C 214.800 41.149,214.636 40.800,214.435 40.800 C 214.234 40.800,213.949 40.080,213.800 39.200 C 213.651 38.320,213.366 37.600,213.165 37.600 C 212.964 37.600,212.800 37.351,212.800 37.046 C 212.800 36.741,212.531 35.976,212.202 35.346 C 211.874 34.716,211.604 33.795,211.602 33.300 C 211.601 32.805,211.436 32.400,211.235 32.400 C 211.034 32.400,210.749 31.680,210.600 30.800 C 210.451 29.920,210.166 29.200,209.965 29.200 C 209.764 29.200,209.600 28.750,209.600 28.200 C 209.600 27.650,209.436 27.200,209.235 27.200 C 209.034 27.200,208.749 26.480,208.600 25.600 C 208.451 24.720,208.166 24.000,207.965 24.000 C 207.764 24.000,207.599 23.595,207.598 23.100 C 207.596 22.605,207.326 21.684,206.998 21.054 C 206.669 20.424,206.400 19.659,206.400 19.354 C 206.400 19.049,206.240 18.800,206.045 18.800 C 205.850 18.800,205.569 17.990,205.421 17.000 C 205.272 16.010,205.005 15.200,204.827 15.200 C 204.648 15.200,204.387 14.480,204.246 13.600 C 204.106 12.720,203.813 12.000,203.595 12.000 C 203.378 12.000,203.200 11.790,203.200 11.534 C 203.200 10.788,201.877 8.000,201.523 8.000 C 201.345 8.000,201.200 7.730,201.200 7.400 C 201.200 6.518,199.099 6.629,198.530 7.541 " stroke="none" fill="#0b542c" fill-rule="evenodd"></path><path id="path2" d="M4.800 385.424 C 4.800 386.066,4.636 386.346,4.360 386.175 C 4.055 385.987,3.963 386.590,4.060 388.152 C 4.138 389.404,4.032 390.401,3.820 390.401 C 3.611 390.400,3.656 390.616,3.920 390.880 C 4.499 391.459,4.565 392.549,4.000 392.200 C 3.742 392.040,3.600 393.670,3.600 396.800 C 3.600 400.562,3.488 401.584,3.100 401.365 C 2.700 401.139,2.700 401.190,3.100 401.621 C 3.717 402.286,3.764 403.348,3.160 402.975 C 2.840 402.778,2.840 402.928,3.160 403.525 C 3.702 404.538,3.733 405.225,3.200 404.400 C 2.899 403.934,2.811 404.051,2.806 404.924 C 2.802 405.717,2.947 405.959,3.300 405.747 C 3.691 405.512,3.697 405.574,3.326 406.033 C 2.654 406.865,2.664 439.197,3.336 439.206 C 3.629 439.210,3.599 439.339,3.257 439.556 C 2.879 439.796,2.849 439.983,3.157 440.174 C 3.401 440.324,3.600 441.506,3.600 442.800 C 3.600 444.094,3.799 445.276,4.043 445.426 C 4.351 445.617,4.321 445.804,3.943 446.044 C 3.644 446.233,3.584 446.391,3.809 446.394 C 4.038 446.397,4.189 447.234,4.153 448.300 C 4.118 449.345,4.260 450.524,4.470 450.921 C 4.679 451.318,4.861 452.374,4.873 453.267 C 4.885 454.161,5.030 454.674,5.195 454.408 C 5.360 454.141,5.580 454.953,5.684 456.210 C 5.812 457.747,6.085 458.616,6.517 458.858 C 7.027 459.143,7.112 459.626,6.927 461.183 C 6.799 462.264,6.837 463.475,7.010 463.874 C 7.184 464.273,7.290 464.825,7.246 465.100 C 7.201 465.375,7.353 465.600,7.582 465.600 C 7.812 465.600,8.000 466.309,8.000 467.176 C 8.000 468.043,8.180 468.864,8.400 469.000 C 8.620 469.136,8.800 469.745,8.800 470.352 C 8.800 470.960,9.085 472.345,9.434 473.429 C 10.352 476.282,10.381 476.383,10.353 476.668 C 10.340 476.811,10.575 477.066,10.877 477.235 C 11.229 477.432,11.393 478.127,11.335 479.171 C 11.285 480.067,11.414 480.800,11.622 480.800 C 11.830 480.800,12.000 481.070,12.000 481.400 C 12.000 481.730,12.155 482.000,12.345 482.000 C 12.535 482.000,12.641 482.450,12.580 483.000 C 12.519 483.554,12.678 484.003,12.935 484.006 C 13.198 484.010,13.140 484.181,12.800 484.400 C 12.400 484.658,12.367 484.790,12.700 484.794 C 12.975 484.797,13.200 485.070,13.200 485.400 C 13.200 485.730,13.391 486.000,13.624 486.000 C 13.857 486.000,13.935 486.181,13.798 486.403 C 13.661 486.624,13.794 486.900,14.093 487.014 C 14.448 487.151,14.583 487.684,14.481 488.555 C 14.353 489.651,14.478 489.927,15.187 490.112 C 15.929 490.307,16.012 490.529,15.788 491.723 C 15.630 492.567,15.699 493.214,15.964 493.378 C 16.204 493.526,16.403 494.042,16.406 494.524 C 16.411 495.164,16.504 495.255,16.754 494.860 C 16.993 494.483,17.180 494.768,17.375 495.806 C 17.528 496.622,18.001 497.664,18.427 498.121 C 18.852 498.577,19.197 499.142,19.194 499.375 C 19.191 499.609,19.013 499.530,18.800 499.200 C 18.567 498.839,18.410 498.790,18.406 499.076 C 18.403 499.338,18.583 499.666,18.807 499.804 C 19.030 499.942,19.091 500.268,18.942 500.528 C 18.794 500.787,18.816 500.870,18.992 500.711 C 19.322 500.412,20.800 502.829,20.800 503.667 C 20.800 503.926,21.084 504.450,21.430 504.833 C 21.777 505.216,22.118 505.771,22.189 506.065 C 22.549 507.561,22.929 508.400,23.247 508.400 C 23.441 508.400,23.601 508.715,23.603 509.100 C 23.604 509.485,23.963 510.340,24.400 511.000 C 24.837 511.660,25.196 512.515,25.197 512.900 C 25.199 513.285,25.380 513.600,25.600 513.600 C 25.820 513.600,26.000 513.881,26.000 514.224 C 26.000 514.567,26.180 514.736,26.400 514.600 C 26.625 514.461,26.800 514.780,26.800 515.327 C 26.800 515.863,27.070 516.526,27.400 516.800 C 27.730 517.074,28.000 517.642,28.000 518.062 C 28.000 518.481,28.239 518.917,28.532 519.029 C 28.824 519.141,29.305 519.848,29.599 520.599 C 29.894 521.349,30.271 521.880,30.436 521.778 C 30.602 521.675,31.009 522.137,31.341 522.803 C 31.674 523.469,31.760 523.899,31.533 523.758 C 31.289 523.608,31.311 523.860,31.586 524.374 C 31.843 524.853,32.311 525.344,32.626 525.465 C 32.942 525.587,33.200 525.999,33.200 526.383 C 33.200 526.766,33.711 527.786,34.336 528.648 C 34.961 529.511,35.577 530.483,35.705 530.808 C 35.871 531.233,35.946 531.250,35.968 530.871 C 35.992 530.470,36.150 530.493,36.626 530.968 C 36.970 531.312,37.150 531.757,37.027 531.956 C 36.904 532.156,37.342 532.895,38.000 533.600 C 38.658 534.305,39.109 535.024,39.001 535.199 C 38.893 535.373,39.085 535.624,39.428 535.755 C 39.770 535.887,39.936 536.180,39.796 536.407 C 39.655 536.634,39.779 536.770,40.070 536.710 C 40.362 536.649,40.555 536.825,40.500 537.100 C 40.445 537.375,40.589 537.600,40.821 537.600 C 41.052 537.600,41.436 538.157,41.673 538.839 C 41.990 539.747,42.196 539.934,42.446 539.539 C 42.693 539.150,42.789 539.254,42.794 539.913 C 42.797 540.414,43.070 540.929,43.400 541.055 C 43.730 541.182,44.000 541.536,44.000 541.843 C 44.000 542.149,44.168 542.400,44.373 542.400 C 44.578 542.400,44.857 542.751,44.994 543.180 C 45.130 543.608,45.605 544.075,46.049 544.216 C 46.548 544.374,46.772 544.696,46.634 545.057 C 46.508 545.384,46.583 545.534,46.805 545.397 C 47.022 545.263,47.200 545.354,47.200 545.600 C 47.200 545.846,47.408 545.919,47.662 545.762 C 47.939 545.591,48.015 545.652,47.853 545.914 C 47.704 546.155,47.917 546.678,48.327 547.076 C 48.737 547.474,49.186 548.118,49.326 548.506 C 49.465 548.894,50.035 549.385,50.593 549.597 C 51.150 549.809,51.560 550.211,51.503 550.491 C 51.446 550.771,51.600 550.963,51.845 550.918 C 52.089 550.874,52.629 551.541,53.045 552.401 C 53.491 553.326,54.127 554.014,54.600 554.083 C 55.061 554.151,55.379 554.484,55.350 554.869 C 55.319 555.282,55.509 555.456,55.850 555.326 C 56.345 555.135,56.592 555.640,56.437 556.530 C 56.406 556.711,56.554 556.752,56.767 556.620 C 57.339 556.267,61.103 560.073,61.416 561.322 C 61.564 561.912,61.830 562.305,62.007 562.196 C 63.093 561.525,65.652 563.838,65.327 565.197 C 65.195 565.749,65.226 566.071,65.396 565.914 C 65.822 565.520,67.278 566.349,66.988 566.820 C 66.858 567.029,66.943 567.200,67.176 567.200 C 67.409 567.200,67.614 567.515,67.632 567.900 C 67.650 568.318,67.744 568.399,67.865 568.100 C 67.976 567.825,68.417 567.600,68.846 567.600 C 69.759 567.600,70.545 569.239,69.850 569.694 C 69.565 569.880,69.651 569.990,70.086 569.994 C 70.463 569.997,70.969 570.369,71.210 570.819 C 71.514 571.386,71.887 571.563,72.424 571.392 C 73.021 571.203,73.200 571.337,73.200 571.973 C 73.200 572.428,73.335 572.814,73.500 572.831 C 75.548 573.040,76.513 573.529,76.246 574.224 C 76.111 574.575,76.179 574.737,76.402 574.599 C 76.898 574.292,79.600 576.321,79.600 576.998 C 79.600 577.275,79.915 577.749,80.300 578.051 C 80.934 578.549,80.949 578.534,80.451 577.900 C 79.779 577.043,80.354 576.983,81.419 577.799 C 81.848 578.128,82.869 578.914,83.687 579.545 C 84.505 580.176,85.051 580.816,84.899 580.967 C 84.748 581.119,84.902 581.136,85.241 581.006 C 85.650 580.849,86.017 581.119,86.330 581.807 C 86.591 582.378,86.978 582.737,87.191 582.606 C 87.404 582.474,87.886 582.724,88.261 583.162 C 88.636 583.601,89.118 583.850,89.333 583.718 C 89.557 583.579,89.595 583.685,89.422 583.965 C 89.229 584.276,89.424 584.533,89.955 584.672 C 90.415 584.793,90.676 585.077,90.536 585.303 C 90.376 585.563,90.664 585.643,91.310 585.519 C 92.075 585.373,92.388 585.512,92.532 586.061 C 92.644 586.491,93.085 586.800,93.586 586.800 C 94.060 586.800,94.375 586.935,94.287 587.100 C 94.199 587.265,94.458 587.715,94.863 588.100 C 95.269 588.485,95.600 588.620,95.600 588.400 C 95.600 587.840,96.635 587.901,97.288 588.500 C 98.094 589.238,99.303 589.991,100.123 590.264 C 100.520 590.397,100.754 590.742,100.643 591.032 C 100.532 591.323,100.791 591.670,101.220 591.806 C 101.649 591.943,102.000 592.241,102.000 592.470 C 102.000 592.715,102.413 592.783,103.000 592.636 C 103.577 592.491,104.000 592.557,104.000 592.792 C 104.000 593.017,104.270 593.200,104.600 593.200 C 104.930 593.200,105.200 593.360,105.200 593.557 C 105.200 593.753,105.657 594.028,106.216 594.168 C 106.775 594.309,107.122 594.603,106.987 594.822 C 106.851 595.041,106.889 595.196,107.070 595.167 C 107.871 595.038,109.170 595.726,108.919 596.145 C 108.769 596.395,108.949 596.355,109.318 596.055 C 110.129 595.397,111.200 595.725,111.200 596.631 C 111.200 597.131,111.438 597.227,112.200 597.036 C 112.777 596.891,113.200 596.957,113.200 597.192 C 113.200 597.417,113.481 597.600,113.824 597.600 C 114.167 597.600,114.349 597.760,114.228 597.955 C 113.927 598.442,115.066 599.330,115.582 599.011 C 115.812 598.869,116.000 598.943,116.000 599.176 C 116.000 599.409,116.450 599.600,117.000 599.600 C 117.550 599.600,118.000 599.760,118.000 599.957 C 118.000 600.153,118.484 600.435,119.076 600.583 C 119.668 600.732,120.474 601.224,120.866 601.676 C 121.343 602.226,121.866 602.424,122.444 602.273 C 123.032 602.119,123.558 602.328,124.085 602.923 C 124.512 603.405,124.731 603.530,124.572 603.200 C 124.337 602.713,124.384 602.694,124.821 603.100 C 125.118 603.375,125.746 603.600,126.218 603.600 C 126.690 603.600,127.599 604.053,128.238 604.606 C 129.092 605.345,129.682 605.550,130.466 605.381 C 131.372 605.186,132.873 605.674,133.600 606.400 C 134.350 607.149,136.720 608.000,138.056 608.000 C 139.003 608.000,139.548 608.160,139.403 608.395 C 139.262 608.624,139.426 608.688,139.791 608.548 C 140.154 608.409,140.718 608.625,141.112 609.053 C 141.887 609.895,143.024 610.286,142.572 609.555 C 142.362 609.215,142.691 609.166,143.791 609.372 C 145.384 609.671,146.800 610.388,146.800 610.896 C 146.800 611.063,147.235 611.200,147.767 611.200 C 148.298 611.200,148.793 611.375,148.867 611.589 C 148.940 611.803,150.305 612.099,151.900 612.246 C 153.495 612.394,154.800 612.689,154.800 612.902 C 154.800 613.128,155.385 613.179,156.205 613.025 C 157.246 612.830,157.668 612.913,157.833 613.343 C 157.963 613.680,158.468 613.878,159.038 613.816 C 159.578 613.756,160.116 613.864,160.233 614.054 C 160.351 614.244,161.347 614.400,162.447 614.400 C 163.547 614.400,164.351 614.556,164.233 614.747 C 164.018 615.094,166.738 615.600,168.822 615.600 C 169.433 615.600,169.993 615.770,170.067 615.978 C 170.140 616.186,171.505 616.393,173.100 616.439 C 174.695 616.484,176.000 616.646,176.000 616.798 C 176.000 616.950,177.318 617.071,178.928 617.067 C 180.539 617.063,182.168 617.179,182.549 617.325 C 183.035 617.512,183.153 617.443,182.944 617.095 C 182.709 616.705,182.774 616.703,183.247 617.086 C 184.091 617.769,216.439 617.750,216.928 617.066 C 217.178 616.716,217.312 616.725,217.465 617.102 C 217.577 617.379,217.846 617.495,218.063 617.361 C 218.280 617.227,220.199 617.091,222.329 617.058 C 224.458 617.025,226.380 616.893,226.600 616.765 C 226.820 616.637,227.900 616.487,229.000 616.431 C 230.100 616.375,231.180 616.188,231.400 616.015 C 231.620 615.842,232.769 615.613,233.954 615.504 C 235.279 615.383,236.237 615.078,236.442 614.711 C 236.693 614.262,237.272 614.163,238.788 614.308 C 239.980 614.423,240.800 614.340,240.800 614.106 C 240.800 613.888,241.205 613.740,241.700 613.778 C 242.195 613.816,242.845 613.662,243.145 613.437 C 243.444 613.212,244.299 613.080,245.045 613.145 C 245.818 613.211,246.400 613.076,246.400 612.831 C 246.400 612.594,247.109 612.400,247.976 612.400 C 248.843 612.400,249.666 612.217,249.804 611.993 C 249.942 611.770,250.242 611.702,250.470 611.843 C 250.699 611.984,251.541 611.906,252.343 611.670 C 253.144 611.433,254.289 611.139,254.886 611.016 C 255.586 610.871,255.898 610.599,255.763 610.248 C 255.535 609.653,256.692 609.214,258.514 609.205 C 259.127 609.202,260.071 608.910,260.611 608.556 C 261.212 608.162,261.974 608.007,262.573 608.157 C 263.111 608.292,263.670 608.210,263.816 607.974 C 263.962 607.738,264.320 607.637,264.611 607.749 C 264.903 607.861,265.357 607.693,265.620 607.376 C 265.883 607.059,266.436 606.800,266.849 606.800 C 267.262 606.800,267.600 606.620,267.600 606.400 C 267.600 606.180,267.971 606.000,268.424 606.000 C 268.941 606.000,269.142 605.829,268.964 605.542 C 268.765 605.219,268.995 605.162,269.743 605.350 C 270.447 605.527,271.368 605.344,272.477 604.808 C 273.398 604.364,274.378 604.000,274.655 604.000 C 274.933 604.000,275.304 603.771,275.480 603.492 C 275.989 602.684,277.997 601.904,278.013 602.509 C 278.020 602.779,278.290 602.651,278.613 602.224 C 279.041 601.657,279.207 601.603,279.227 602.024 C 279.243 602.364,279.426 602.245,279.674 601.732 C 280.062 600.930,281.850 600.117,282.281 600.547 C 282.383 600.650,282.812 600.388,283.233 599.967 C 283.655 599.545,284.528 599.200,285.173 599.200 C 285.995 599.200,286.422 598.960,286.600 598.400 C 286.887 597.496,287.433 597.352,287.735 598.100 C 287.893 598.492,287.944 598.493,287.968 598.105 C 288.022 597.267,291.004 595.628,292.052 595.860 C 292.805 596.026,292.877 595.981,292.400 595.641 C 291.904 595.286,291.960 595.211,292.724 595.206 C 293.232 595.203,293.553 595.047,293.437 594.860 C 293.130 594.363,295.036 593.452,295.624 593.815 C 295.939 594.009,296.023 593.960,295.851 593.682 C 295.700 593.439,295.931 593.051,296.363 592.820 C 297.353 592.290,298.123 592.277,297.803 592.795 C 297.663 593.022,297.823 593.089,298.177 592.954 C 298.517 592.823,298.718 592.591,298.624 592.439 C 298.354 592.003,298.886 591.462,300.400 590.635 C 301.170 590.214,302.441 589.371,303.224 588.761 C 304.007 588.152,305.132 587.532,305.724 587.383 C 306.316 587.235,306.800 586.953,306.800 586.757 C 306.800 586.560,306.997 586.400,307.238 586.400 C 307.479 586.400,308.206 586.023,308.852 585.563 C 309.499 585.102,310.281 584.822,310.589 584.941 C 310.949 585.078,311.195 584.840,311.275 584.278 C 311.356 583.708,311.681 583.400,312.200 583.400 C 313.066 583.400,313.642 582.999,316.073 580.704 C 316.992 579.836,318.443 578.981,319.529 578.668 C 321.040 578.232,321.531 577.854,322.083 576.707 C 322.970 574.861,325.484 572.800,326.848 572.800 C 327.435 572.800,328.018 572.530,328.145 572.200 C 328.271 571.870,328.681 571.600,329.054 571.600 C 329.428 571.600,329.617 571.483,329.474 571.341 C 329.189 571.056,330.704 569.600,331.285 569.600 C 331.484 569.600,331.555 569.450,331.441 569.267 C 331.010 568.569,334.202 564.889,335.300 564.819 C 335.919 564.780,349.600 551.379,349.600 550.813 C 349.600 550.667,350.501 549.598,351.601 548.438 C 352.725 547.253,353.486 546.125,353.337 545.864 C 353.191 545.609,353.209 545.524,353.377 545.675 C 353.545 545.826,354.710 544.746,355.965 543.275 C 358.557 540.237,360.388 537.713,359.683 538.149 C 359.373 538.340,359.288 538.236,359.438 537.846 C 359.563 537.518,359.923 537.349,360.238 537.470 C 360.652 537.629,360.734 537.494,360.537 536.979 C 360.358 536.512,360.415 536.362,360.705 536.541 C 360.955 536.696,361.455 536.292,361.859 535.607 C 362.252 534.943,362.724 534.400,362.910 534.400 C 363.095 534.400,363.136 534.220,363.000 534.000 C 362.864 533.780,362.943 533.600,363.176 533.600 C 363.409 533.600,363.600 533.412,363.600 533.183 C 363.600 532.954,363.954 532.387,364.386 531.923 C 364.819 531.459,365.078 530.926,364.963 530.739 C 364.847 530.553,364.951 530.400,365.194 530.400 C 365.437 530.400,365.585 530.175,365.524 529.900 C 365.301 528.898,366.473 526.846,367.339 526.723 C 367.903 526.642,368.160 526.359,368.083 525.902 C 368.018 525.518,368.360 524.798,368.842 524.302 C 369.323 523.806,369.572 523.670,369.395 524.000 C 369.203 524.356,369.220 524.464,369.436 524.267 C 369.636 524.083,369.822 523.768,369.850 523.567 C 369.878 523.365,369.923 523.009,369.950 522.776 C 369.977 522.543,370.180 522.464,370.400 522.600 C 370.620 522.736,370.800 522.466,370.800 522.000 C 370.800 521.534,370.954 521.248,371.142 521.364 C 371.632 521.667,372.578 519.610,372.590 518.216 C 372.597 517.385,372.876 516.893,373.525 516.566 C 374.471 516.091,375.720 513.880,376.171 511.884 C 376.319 511.227,376.601 510.877,376.854 511.034 C 377.148 511.215,377.198 510.901,377.011 510.050 C 376.749 508.856,376.983 508.576,378.100 508.753 C 378.265 508.779,378.400 508.440,378.400 508.000 C 378.400 507.560,378.561 507.200,378.757 507.200 C 378.954 507.200,379.222 506.921,379.353 506.579 C 379.489 506.223,379.422 506.063,379.195 506.203 C 378.443 506.668,378.803 505.491,379.634 504.770 C 380.191 504.287,380.385 503.784,380.218 503.257 C 380.048 502.720,380.228 502.285,380.784 501.896 C 381.271 501.555,381.573 500.935,381.532 500.362 C 381.494 499.833,381.828 498.590,382.273 497.600 C 382.718 496.610,383.197 495.474,383.338 495.075 C 383.479 494.676,383.750 494.445,383.939 494.563 C 384.129 494.680,384.199 494.331,384.096 493.788 C 383.989 493.228,384.095 492.800,384.341 492.800 C 384.580 492.800,384.678 492.548,384.560 492.240 C 384.442 491.933,384.538 491.562,384.773 491.417 C 385.008 491.272,385.200 490.803,385.200 490.376 C 385.200 489.949,385.380 489.600,385.600 489.600 C 385.820 489.600,386.000 489.240,386.000 488.800 C 386.000 488.360,386.253 488.000,386.563 488.000 C 386.942 488.000,387.052 487.719,386.900 487.137 C 386.730 486.490,386.807 486.357,387.205 486.603 C 387.599 486.846,387.665 486.746,387.461 486.215 C 387.310 485.821,387.389 485.254,387.638 484.954 C 387.886 484.655,387.978 483.967,387.842 483.426 C 387.655 482.681,387.825 482.267,388.540 481.728 C 389.368 481.104,389.439 480.849,389.113 479.671 C 388.749 478.352,389.618 476.517,390.383 476.989 C 390.534 477.083,390.678 476.494,390.702 475.680 C 390.779 473.022,390.836 472.759,391.621 471.472 C 392.048 470.773,392.398 469.615,392.399 468.900 C 392.399 468.185,392.594 467.600,392.832 467.600 C 393.098 467.600,393.168 467.164,393.013 466.461 C 392.695 465.009,393.374 460.735,394.181 459.118 C 394.522 458.435,394.800 457.465,394.800 456.962 C 394.800 456.459,394.980 455.936,395.200 455.800 C 395.420 455.664,395.600 454.663,395.600 453.576 C 395.600 452.489,395.770 451.600,395.977 451.600 C 396.184 451.600,396.347 450.661,396.338 449.513 C 396.329 448.365,396.495 447.368,396.706 447.298 C 396.928 447.224,397.009 446.019,396.896 444.450 C 396.771 442.702,396.878 441.401,397.196 440.808 C 397.539 440.166,397.671 437.824,397.629 433.110 C 397.589 428.513,397.703 426.416,397.985 426.591 C 398.213 426.732,398.400 426.672,398.400 426.457 C 398.400 426.242,398.175 425.976,397.900 425.865 C 397.509 425.707,397.512 425.656,397.914 425.632 C 398.298 425.608,398.323 425.403,398.013 424.824 C 397.737 424.308,397.732 423.966,397.999 423.801 C 398.521 423.478,398.521 421.600,398.000 421.600 C 397.512 421.600,397.649 420.711,398.200 420.306 C 398.465 420.112,398.462 420.010,398.191 420.006 C 397.732 419.999,397.657 417.009,398.105 416.562 C 398.263 416.403,398.170 415.997,397.897 415.660 C 397.500 415.171,397.501 415.107,397.900 415.347 C 398.175 415.512,398.400 415.457,398.400 415.224 C 398.400 414.991,398.220 414.800,398.000 414.800 C 397.780 414.800,397.600 414.339,397.600 413.776 C 397.600 413.064,397.752 412.844,398.100 413.053 C 398.485 413.284,398.495 413.220,398.144 412.777 C 397.462 411.915,397.405 403.602,398.081 403.594 C 398.452 403.589,398.429 403.479,398.000 403.206 C 397.492 402.883,397.482 402.693,397.930 401.970 C 398.221 401.501,398.266 401.236,398.030 401.382 C 397.742 401.560,397.600 400.855,397.600 399.247 C 397.600 397.917,397.402 396.725,397.155 396.572 C 396.864 396.392,396.775 395.247,396.896 393.261 C 397.037 390.971,396.942 390.085,396.512 389.654 C 396.091 389.234,396.011 388.574,396.208 387.142 C 396.413 385.652,396.350 385.199,395.938 385.194 C 395.529 385.189,395.544 385.095,396.000 384.800 C 396.388 384.549,327.322 384.410,200.700 384.406 L 4.800 384.400 4.800 385.424 " stroke="none" fill="#9c041c" fill-rule="evenodd"></path><path id="path3" d="M88.933 219.000 C 89.022 219.265,126.792 219.433,200.919 219.497 C 289.850 219.573,312.733 219.491,312.582 219.097 C 312.335 218.454,88.719 218.358,88.933 219.000 M84.900 224.223 C 84.311 224.863,84.262 225.200,84.757 225.200 C 85.098 225.200,85.737 223.996,85.509 223.783 C 85.449 223.727,85.175 223.925,84.900 224.223 M318.000 228.000 C 318.000 228.220,318.180 228.400,318.400 228.400 C 318.620 228.400,318.800 228.642,318.800 228.938 C 318.800 229.234,319.129 229.774,319.531 230.138 C 320.748 231.239,320.939 230.881,319.836 229.569 C 319.266 228.892,318.800 228.172,318.800 227.969 C 318.800 227.766,318.620 227.600,318.400 227.600 C 318.180 227.600,318.000 227.780,318.000 228.000 M80.473 230.487 C 79.913 231.047,79.855 231.600,80.357 231.600 C 80.724 231.600,81.327 230.394,81.083 230.149 C 81.008 230.075,80.734 230.226,80.473 230.487 M77.867 234.267 C 77.381 234.753,77.590 235.179,78.200 234.945 C 78.530 234.818,78.800 234.554,78.800 234.357 C 78.800 233.938,78.249 233.884,77.867 234.267 M73.454 240.602 C 73.315 240.965,73.456 241.200,73.813 241.200 C 74.460 241.200,74.607 240.575,74.042 240.226 C 73.845 240.104,73.581 240.274,73.454 240.602 M72.400 241.950 C 72.400 242.216,72.040 242.820,71.600 243.292 C 70.580 244.387,70.568 244.952,71.577 244.321 C 72.351 243.838,73.037 242.104,72.619 241.686 C 72.499 241.565,72.400 241.684,72.400 241.950 M69.000 247.316 C 67.717 248.872,66.395 250.800,66.611 250.800 C 66.966 250.800,70.000 247.503,70.000 247.118 C 70.000 246.651,69.460 246.758,69.000 247.316 M66.000 251.824 C 66.000 252.167,65.820 252.336,65.600 252.200 C 65.380 252.064,65.200 252.233,65.200 252.576 C 65.200 252.919,65.023 253.200,64.808 253.200 C 64.592 253.200,64.302 253.650,64.164 254.200 C 64.026 254.750,63.772 255.200,63.599 255.200 C 63.427 255.200,63.182 255.470,63.055 255.800 C 62.929 256.130,62.882 256.400,62.951 256.400 C 63.288 256.400,64.800 254.858,64.800 254.514 C 64.800 254.299,65.160 253.707,65.600 253.200 C 66.334 252.354,66.680 251.200,66.200 251.200 C 66.090 251.200,66.000 251.481,66.000 251.824 M61.646 257.917 C 61.621 258.201,61.242 258.818,60.804 259.288 C 59.765 260.403,60.093 260.717,61.210 259.677 C 61.714 259.207,61.994 258.567,61.883 258.136 C 61.778 257.731,61.672 257.633,61.646 257.917 M348.229 271.953 C 348.091 272.177,348.388 272.578,348.889 272.845 C 349.748 273.303,349.766 273.287,349.213 272.565 C 348.890 272.144,348.593 271.743,348.553 271.673 C 348.513 271.604,348.367 271.730,348.229 271.953 M355.839 284.338 C 355.700 284.561,355.782 284.865,356.020 285.012 C 356.635 285.393,357.032 284.872,356.518 284.358 C 356.231 284.071,356.007 284.064,355.839 284.338 M360.087 292.862 C 360.186 293.158,360.587 293.462,360.979 293.538 C 361.435 293.627,361.628 293.482,361.513 293.138 C 361.414 292.842,361.013 292.538,360.621 292.462 C 360.165 292.373,359.972 292.518,360.087 292.862 M364.800 300.157 C 364.800 300.464,365.074 300.820,365.409 300.948 C 365.906 301.139,365.941 301.036,365.595 300.391 C 365.099 299.464,364.800 299.376,364.800 300.157 M377.028 323.870 C 376.800 324.465,377.357 325.177,378.063 325.194 C 378.404 325.202,377.998 323.646,377.594 323.396 C 377.423 323.291,377.169 323.504,377.028 323.870 M380.471 331.067 C 380.542 331.434,380.811 331.804,381.069 331.890 C 381.367 331.989,381.459 331.746,381.322 331.223 C 381.066 330.245,380.283 330.102,380.471 331.067 M381.600 333.576 C 381.600 334.029,381.780 334.400,382.000 334.400 C 382.220 334.400,382.400 334.141,382.400 333.824 C 382.400 333.507,382.220 333.136,382.000 333.000 C 381.780 332.864,381.600 333.123,381.600 333.576 M382.171 335.247 C 381.992 335.536,382.060 335.820,382.329 335.910 C 382.588 335.996,382.800 336.322,382.800 336.633 C 382.800 336.945,382.980 337.200,383.200 337.200 C 383.719 337.200,383.707 337.098,383.042 335.816 C 382.644 335.049,382.394 334.886,382.171 335.247 M384.922 342.891 C 385.046 343.822,385.340 344.647,385.574 344.725 C 385.808 344.803,386.000 345.212,386.000 345.633 C 386.000 346.055,386.180 346.400,386.400 346.400 C 386.620 346.400,386.800 346.670,386.800 347.000 C 386.800 347.330,386.980 347.600,387.200 347.600 C 387.420 347.600,387.600 347.431,387.600 347.224 C 387.600 347.017,387.420 346.736,387.200 346.600 C 386.980 346.464,386.800 346.003,386.800 345.576 C 386.800 345.149,386.631 344.800,386.425 344.800 C 386.218 344.800,385.928 343.990,385.779 343.000 C 385.631 342.010,385.326 341.200,385.102 341.200 C 384.854 341.200,384.783 341.862,384.922 342.891 M15.200 343.000 C 15.200 343.330,15.380 343.600,15.600 343.600 C 15.820 343.600,16.000 343.330,16.000 343.000 C 16.000 342.670,15.820 342.400,15.600 342.400 C 15.380 342.400,15.200 342.670,15.200 343.000 M388.000 351.127 C 388.000 351.553,388.245 352.106,388.545 352.355 C 388.987 352.721,389.054 352.615,388.897 351.798 C 388.660 350.557,388.000 350.064,388.000 351.127 M389.334 356.272 C 389.625 358.066,390.800 359.519,390.800 358.086 C 390.800 357.599,390.620 357.200,390.400 357.200 C 390.180 357.200,390.000 356.660,390.000 356.000 C 390.000 355.340,389.796 354.800,389.548 354.800 C 389.250 354.800,389.177 355.303,389.334 356.272 M393.200 370.176 C 393.200 370.739,393.380 371.200,393.600 371.200 C 393.820 371.200,394.000 370.851,394.000 370.424 C 394.000 369.997,393.820 369.536,393.600 369.400 C 393.373 369.260,393.200 369.596,393.200 370.176 M393.900 372.533 C 393.475 373.572,393.528 375.108,394.000 375.400 C 394.220 375.536,394.400 375.997,394.400 376.424 C 394.400 376.851,394.580 377.200,394.800 377.200 C 395.305 377.200,395.324 375.886,394.827 375.380 C 394.621 375.171,394.396 374.280,394.327 373.400 C 394.234 372.230,394.119 371.997,393.900 372.533 M6.000 375.400 C 6.000 375.730,6.180 376.000,6.400 376.000 C 6.620 376.000,6.800 375.730,6.800 375.400 C 6.800 375.070,6.620 374.800,6.400 374.800 C 6.180 374.800,6.000 375.070,6.000 375.400 M395.206 378.700 C 395.203 379.195,395.380 379.600,395.600 379.600 C 396.101 379.600,396.101 379.176,395.600 378.400 C 395.286 377.915,395.211 377.972,395.206 378.700 M395.675 382.900 L 395.800 383.800 200.200 384.001 L 4.600 384.201 200.500 384.301 L 396.400 384.400 396.400 383.200 C 396.400 382.540,396.209 382.000,395.975 382.000 C 395.741 382.000,395.606 382.405,395.675 382.900 " stroke="none" fill="#948c1c" fill-rule="evenodd"></path><path id="path4" d="M4.284 385.200 C 4.169 385.639,4.238 386.100,4.438 386.223 C 4.637 386.346,4.800 385.987,4.800 385.424 C 4.800 384.198,4.572 384.099,4.284 385.200 M396.222 387.021 C 395.935 388.552,396.229 390.000,396.827 390.000 C 397.303 390.000,397.319 386.121,396.844 385.827 C 396.648 385.706,396.368 386.243,396.222 387.021 M3.600 391.353 C 3.600 391.683,3.780 392.064,4.000 392.200 C 4.220 392.336,4.400 392.177,4.400 391.847 C 4.400 391.517,4.220 391.136,4.000 391.000 C 3.780 390.864,3.600 391.023,3.600 391.353 M396.843 393.764 C 396.796 395.215,396.942 396.441,397.180 396.588 C 397.458 396.760,397.600 395.894,397.600 394.024 C 397.600 390.498,396.956 390.277,396.843 393.764 M3.137 400.700 C 2.921 403.114,2.926 403.854,3.161 404.293 C 3.306 404.564,3.451 403.709,3.484 402.393 C 3.539 400.222,3.289 399.003,3.137 400.700 M397.680 401.773 C 397.680 402.558,397.829 403.200,398.011 403.200 C 398.193 403.200,398.270 402.635,398.183 401.945 C 397.959 400.177,397.680 400.081,397.680 401.773 M397.645 409.200 C 397.679 412.280,397.849 414.800,398.023 414.800 C 398.197 414.800,398.317 412.280,398.290 409.200 C 398.264 406.120,398.093 403.600,397.912 403.600 C 397.731 403.600,397.610 406.120,397.645 409.200 M397.787 417.630 C 397.794 418.934,397.944 420.000,398.121 420.000 C 398.487 420.000,398.389 415.641,398.018 415.411 C 397.884 415.328,397.780 416.327,397.787 417.630 M397.600 432.000 C 397.600 435.106,397.754 437.552,397.942 437.436 C 398.445 437.125,398.510 426.915,398.011 426.607 C 397.737 426.438,397.600 428.238,397.600 432.000 M397.100 440.933 C 396.619 442.107,396.723 446.237,397.221 445.739 C 397.455 445.505,397.588 444.186,397.521 442.759 C 397.444 441.138,397.290 440.469,397.100 440.933 M396.329 448.305 C 396.138 449.604,396.530 451.570,396.865 450.996 C 397.200 450.423,397.131 447.200,396.784 447.200 C 396.623 447.200,396.418 447.697,396.329 448.305 M395.600 453.576 C 395.600 454.663,395.420 455.664,395.200 455.800 C 394.980 455.936,394.800 456.459,394.800 456.962 C 394.800 457.465,394.519 458.441,394.175 459.130 C 393.451 460.581,392.626 465.370,392.953 466.221 C 393.455 467.530,393.968 466.636,394.227 464.000 C 394.379 462.460,394.660 461.200,394.852 461.200 C 395.043 461.200,395.200 460.648,395.200 459.974 C 395.200 459.299,395.365 458.439,395.567 458.061 C 396.177 456.923,396.576 451.600,396.052 451.600 C 395.777 451.600,395.600 452.375,395.600 453.576 M6.000 459.776 C 6.000 460.313,6.167 460.856,6.371 460.982 C 6.822 461.261,7.352 459.769,7.002 459.204 C 6.549 458.470,6.000 458.784,6.000 459.776 M392.399 468.900 C 392.398 469.615,392.048 470.773,391.621 471.472 C 391.195 472.172,390.845 473.072,390.844 473.472 C 390.844 473.873,390.722 474.695,390.575 475.300 C 390.403 476.003,390.468 476.400,390.753 476.400 C 390.999 476.400,391.200 475.950,391.200 475.400 C 391.200 474.850,391.380 474.400,391.600 474.400 C 391.820 474.400,392.003 473.995,392.006 473.500 C 392.009 473.005,392.271 471.880,392.588 471.000 C 393.268 469.115,393.362 467.600,392.800 467.600 C 392.580 467.600,392.399 468.185,392.399 468.900 M389.468 477.525 C 388.990 478.053,388.867 478.636,389.046 479.528 C 389.324 480.920,390.000 480.869,390.000 479.456 C 390.000 478.963,390.216 478.344,390.480 478.080 C 390.807 477.753,390.830 477.470,390.551 477.191 C 390.271 476.911,389.927 477.018,389.468 477.525 M388.255 481.940 C 387.619 482.642,387.710 484.000,388.393 484.000 C 388.707 484.000,389.318 481.584,389.067 481.334 C 388.991 481.257,388.625 481.530,388.255 481.940 M386.000 488.600 C 386.000 488.930,386.180 489.200,386.400 489.200 C 386.620 489.200,386.800 488.930,386.800 488.600 C 386.800 488.270,386.620 488.000,386.400 488.000 C 386.180 488.000,386.000 488.270,386.000 488.600 M385.200 490.376 C 385.200 490.803,385.008 491.272,384.773 491.417 C 384.538 491.562,384.442 491.933,384.560 492.240 C 384.678 492.548,384.601 492.800,384.387 492.800 C 384.174 492.800,384.000 493.042,384.000 493.339 C 384.000 493.635,383.755 494.400,383.456 495.039 C 381.733 498.720,381.316 499.836,381.491 500.292 C 381.861 501.257,382.331 500.794,382.600 499.200 C 382.749 498.320,383.034 497.600,383.235 497.600 C 383.436 497.600,383.600 497.150,383.600 496.600 C 383.600 496.050,383.799 495.600,384.043 495.600 C 384.286 495.600,384.382 495.330,384.255 495.000 C 384.129 494.670,384.199 494.400,384.413 494.400 C 384.626 494.400,384.800 494.151,384.800 493.846 C 384.800 493.541,385.069 492.776,385.398 492.146 C 386.085 490.827,386.183 489.600,385.600 489.600 C 385.380 489.600,385.200 489.949,385.200 490.376 M15.200 490.776 C 15.200 491.229,15.380 491.600,15.600 491.600 C 15.820 491.600,16.000 491.341,16.000 491.024 C 16.000 490.707,15.820 490.336,15.600 490.200 C 15.380 490.064,15.200 490.323,15.200 490.776 M18.281 498.561 C 18.677 499.089,19.057 499.467,19.128 499.400 C 19.338 499.199,18.234 497.600,17.885 497.600 C 17.708 497.600,17.886 498.032,18.281 498.561 M380.386 502.217 C 380.050 502.622,380.009 502.969,380.268 503.228 C 380.526 503.486,380.820 503.274,381.122 502.611 C 381.632 501.492,381.185 501.254,380.386 502.217 M379.271 505.029 C 378.980 505.358,378.809 505.826,378.889 506.068 C 378.970 506.311,379.347 506.035,379.727 505.455 C 380.466 504.328,380.150 504.034,379.271 505.029 M377.300 508.687 C 376.711 508.898,376.635 509.851,377.180 510.188 C 377.389 510.317,377.749 510.068,377.981 509.635 C 378.427 508.802,378.130 508.389,377.300 508.687 M372.804 516.995 C 372.515 517.343,372.437 517.882,372.617 518.295 C 372.908 518.964,372.932 518.964,373.091 518.300 C 373.183 517.915,373.425 517.600,373.629 517.600 C 373.833 517.600,374.000 517.330,374.000 517.000 C 374.000 516.233,373.438 516.231,372.804 516.995 M368.872 524.203 C 367.962 525.250,367.747 526.000,368.357 526.000 C 368.659 526.000,369.229 525.101,369.372 524.400 C 369.394 524.290,369.555 523.975,369.730 523.700 C 370.258 522.868,369.799 523.138,368.872 524.203 M365.881 528.200 C 365.280 529.460,365.276 529.600,365.844 529.600 C 366.191 529.600,366.569 529.240,366.684 528.800 C 366.799 528.360,367.033 528.000,367.204 528.000 C 367.375 528.000,367.618 527.730,367.745 527.400 C 368.246 526.094,366.535 526.828,365.881 528.200 M36.006 530.671 C 36.018 531.284,36.755 532.178,37.026 531.907 C 37.174 531.759,37.004 531.347,36.648 530.990 C 36.291 530.634,36.003 530.491,36.006 530.671 M51.892 551.073 C 51.788 551.253,52.150 551.850,52.697 552.400 L 53.692 553.400 52.967 552.200 C 52.568 551.540,52.206 550.943,52.161 550.873 C 52.117 550.804,51.995 550.894,51.892 551.073 M54.400 554.277 C 54.400 554.429,55.075 555.200,55.900 555.990 C 56.725 556.780,58.345 558.444,59.500 559.689 C 61.661 562.018,61.934 562.182,61.140 560.674 C 60.329 559.134,54.400 553.507,54.400 554.277 M62.000 562.162 C 62.000 562.651,63.360 563.948,63.671 563.756 C 63.852 563.644,64.000 563.811,64.000 564.127 C 64.000 565.053,65.057 565.749,65.341 565.010 C 65.708 564.053,65.285 563.413,63.889 562.815 C 63.180 562.511,62.465 562.188,62.300 562.098 C 62.135 562.007,62.000 562.036,62.000 562.162 M333.915 565.721 C 332.532 566.959,330.871 569.200,331.336 569.200 C 331.462 569.200,332.556 568.217,333.768 567.015 C 336.146 564.656,336.264 563.617,333.915 565.721 M65.600 565.998 C 65.600 566.483,66.722 567.012,67.052 566.682 C 67.171 566.562,66.893 566.264,66.434 566.018 C 65.856 565.709,65.600 565.703,65.600 565.998 M68.000 567.911 C 68.000 568.363,69.605 569.668,69.983 569.523 C 70.632 569.274,69.614 567.600,68.813 567.600 C 68.366 567.600,68.000 567.740,68.000 567.911 M72.406 571.500 C 72.424 572.377,73.188 572.959,73.194 572.100 C 73.197 571.605,73.020 571.200,72.800 571.200 C 72.580 571.200,72.403 571.335,72.406 571.500 M74.654 573.288 C 75.234 574.225,76.183 575.200,76.517 575.200 C 76.704 575.200,77.108 575.425,77.415 575.700 C 78.888 577.022,79.273 577.260,79.524 577.010 C 79.890 576.643,77.118 574.376,76.550 574.577 C 76.302 574.665,76.122 574.461,76.150 574.124 C 76.177 573.787,75.786 573.353,75.280 573.161 C 74.602 572.903,74.437 572.937,74.654 573.288 M324.112 574.197 C 323.215 574.965,322.285 576.180,322.046 576.897 L 321.612 578.200 322.370 577.300 C 322.787 576.805,323.279 576.397,323.464 576.393 C 323.649 576.390,324.579 575.580,325.532 574.593 C 327.706 572.342,326.630 572.042,324.112 574.197 M81.039 578.312 C 82.653 579.730,84.118 580.761,84.522 580.763 C 84.699 580.764,85.188 581.178,85.608 581.682 C 86.029 582.187,86.379 582.382,86.387 582.116 C 86.401 581.588,86.186 581.378,83.800 579.594 C 82.920 578.936,81.848 578.128,81.419 577.799 C 80.058 576.756,79.746 577.176,81.039 578.312 M318.510 578.992 C 317.801 579.300,316.610 580.148,315.863 580.876 C 313.774 582.914,313.068 583.400,312.200 583.400 C 311.681 583.400,311.356 583.708,311.275 584.278 C 311.195 584.840,310.949 585.078,310.589 584.941 C 310.281 584.822,309.499 585.102,308.852 585.563 C 308.206 586.023,307.479 586.400,307.238 586.400 C 306.997 586.400,306.800 586.560,306.800 586.757 C 306.800 586.953,306.327 587.232,305.749 587.377 C 305.172 587.522,303.897 588.253,302.917 589.001 C 301.937 589.749,300.613 590.593,299.974 590.876 C 298.624 591.473,298.055 592.415,299.230 592.108 C 299.653 591.997,300.000 591.748,300.000 591.553 C 300.000 591.359,300.336 591.200,300.746 591.200 C 301.156 591.200,301.921 590.870,302.446 590.466 C 302.971 590.062,303.985 589.478,304.700 589.168 C 305.415 588.858,306.000 588.483,306.000 588.334 C 306.000 588.185,306.540 587.945,307.200 587.800 C 307.860 587.655,308.400 587.389,308.400 587.208 C 308.400 587.028,309.300 586.664,310.400 586.400 C 311.822 586.059,312.400 585.725,312.400 585.244 C 312.400 584.855,313.250 584.072,314.400 583.400 C 315.500 582.758,316.400 582.090,316.400 581.916 C 316.400 581.742,316.600 581.600,316.844 581.600 C 317.088 581.600,317.673 581.246,318.144 580.813 C 318.615 580.380,319.450 579.666,320.000 579.226 C 321.193 578.272,320.438 578.154,318.510 578.992 M87.213 582.713 C 87.241 583.354,89.149 584.406,89.438 583.939 C 89.616 583.651,89.548 583.585,89.259 583.764 C 89.002 583.922,88.692 583.785,88.566 583.456 C 88.328 582.836,87.191 582.211,87.213 582.713 M91.895 585.455 C 91.738 585.705,91.861 586.118,92.169 586.374 C 92.595 586.728,92.800 586.724,93.026 586.358 C 93.207 586.065,93.155 585.981,92.892 586.143 C 92.655 586.290,92.398 586.093,92.321 585.705 C 92.230 585.244,92.082 585.157,91.895 585.455 M95.600 588.400 C 95.600 588.620,95.870 588.800,96.200 588.800 C 96.530 588.800,96.800 588.948,96.800 589.129 C 96.800 589.438,99.986 591.200,100.544 591.200 C 101.099 591.200,100.759 590.480,100.100 590.258 C 99.299 589.989,98.085 589.230,97.288 588.500 C 96.635 587.901,95.600 587.840,95.600 588.400 M295.099 593.502 C 293.728 594.264,293.324 594.676,293.649 594.979 C 293.967 595.276,294.154 595.252,294.283 594.900 C 294.384 594.625,294.722 594.400,295.033 594.400 C 295.345 594.400,295.600 594.209,295.600 593.976 C 295.600 593.743,295.778 593.663,295.995 593.797 C 296.212 593.931,296.786 593.672,297.270 593.220 C 298.517 592.059,297.445 592.198,295.099 593.502 M105.633 594.121 C 105.725 594.188,106.340 594.558,107.000 594.945 L 108.200 595.647 107.256 594.824 C 106.736 594.371,106.121 594.000,105.889 594.000 C 105.657 594.000,105.542 594.054,105.633 594.121 M108.467 595.772 C 109.590 596.657,111.239 597.098,111.121 596.482 C 111.032 596.020,110.562 595.779,109.662 595.733 C 108.931 595.697,108.394 595.714,108.467 595.772 M289.681 596.481 C 288.956 596.929,288.438 597.372,288.532 597.465 C 288.769 597.703,291.578 596.265,291.590 595.900 C 291.605 595.442,291.127 595.588,289.681 596.481 M112.146 597.106 C 111.860 597.291,112.169 597.643,112.980 598.057 C 114.032 598.595,114.267 598.613,114.267 598.157 C 114.267 597.851,114.027 597.600,113.733 597.600 C 113.440 597.600,113.200 597.420,113.200 597.200 C 113.200 596.731,112.783 596.694,112.146 597.106 M283.376 599.787 C 282.366 600.551,282.804 600.559,284.254 599.802 C 284.884 599.474,285.119 599.204,284.776 599.202 C 284.434 599.201,283.804 599.464,283.376 599.787 M280.700 600.676 C 280.315 600.776,280.000 601.032,280.000 601.243 C 280.000 601.480,280.269 601.490,280.700 601.268 C 281.085 601.070,281.670 600.808,282.000 600.686 C 282.775 600.398,281.791 600.391,280.700 600.676 M276.700 602.520 C 276.095 602.759,275.600 603.115,275.600 603.311 C 275.600 603.506,275.825 603.562,276.100 603.434 C 276.375 603.305,276.915 603.089,277.300 602.954 C 277.685 602.818,278.000 602.548,278.000 602.353 C 278.000 602.159,277.955 602.019,277.900 602.043 C 277.845 602.066,277.305 602.281,276.700 602.520 M126.560 604.210 C 127.197 604.542,127.822 604.711,127.948 604.585 C 128.280 604.253,127.134 603.613,126.200 603.609 C 125.561 603.606,125.633 603.726,126.560 604.210 M130.400 605.600 C 130.400 605.820,130.760 606.000,131.200 606.000 C 131.640 606.000,132.000 606.180,132.000 606.400 C 132.000 606.620,132.360 606.800,132.800 606.800 C 133.921 606.800,133.790 606.291,132.517 605.700 C 131.218 605.097,130.400 605.058,130.400 605.600 M269.000 605.600 C 269.136 605.820,269.517 606.000,269.847 606.000 C 270.177 606.000,270.336 605.820,270.200 605.600 C 270.064 605.380,269.683 605.200,269.353 605.200 C 269.023 605.200,268.864 605.380,269.000 605.600 M138.103 608.434 C 138.490 608.659,138.985 608.733,139.203 608.598 C 139.421 608.463,139.600 608.543,139.600 608.776 C 139.600 609.009,139.870 609.200,140.200 609.200 C 141.124 609.200,140.910 608.523,139.900 608.252 C 138.326 607.830,137.253 607.939,138.103 608.434 M260.576 608.630 C 259.827 609.237,259.835 609.252,260.800 609.035 C 261.350 608.912,262.025 608.808,262.300 608.805 C 262.575 608.802,262.800 608.620,262.800 608.400 C 262.800 607.785,261.445 607.925,260.576 608.630 M142.216 609.574 C 142.065 609.819,142.089 609.985,142.270 609.943 C 142.886 609.798,145.608 610.489,145.828 610.845 C 146.096 611.279,146.800 611.316,146.800 610.896 C 146.800 609.962,142.706 608.781,142.216 609.574 M256.278 609.480 C 255.548 609.669,255.488 610.495,256.210 610.418 C 257.078 610.326,259.600 609.557,259.600 609.385 C 259.600 609.157,257.264 609.224,256.278 609.480 M153.200 612.715 C 153.200 612.888,153.560 613.057,154.000 613.090 C 154.440 613.123,154.800 612.981,154.800 612.775 C 154.800 612.569,154.440 612.400,154.000 612.400 C 153.560 612.400,153.200 612.542,153.200 612.715 M156.400 613.157 C 156.400 613.563,157.618 614.115,157.897 613.836 C 157.998 613.735,157.961 613.461,157.816 613.227 C 157.497 612.710,156.400 612.656,156.400 613.157 M243.180 613.424 C 242.662 614.049,242.963 614.115,244.171 613.642 C 244.835 613.381,244.853 613.306,244.300 613.094 C 243.947 612.958,243.443 613.107,243.180 613.424 M236.584 614.427 C 236.188 615.066,236.631 615.308,237.623 614.993 C 238.313 614.774,238.385 614.636,237.953 614.362 C 237.220 613.898,236.901 613.913,236.584 614.427 M163.120 614.880 C 163.493 615.253,163.707 615.253,164.080 614.880 C 164.453 614.507,164.347 614.400,163.600 614.400 C 162.853 614.400,162.747 614.507,163.120 614.880 " stroke="none" fill="#8f041d" fill-rule="evenodd"></path></g></svg>